<?xml version="1.0" encoding="utf-8"?>
<svg version="1.1" xmlns:xlink="http://www.w3.org/1999/xlink" width="12px" height="12px" viewBox="1020 1448  12 12" xmlns="http://www.w3.org/2000/svg">
  <path d="M 1026 1448  C 1029.36 1448  1032 1450.64  1032 1454  C 1032 1457.36  1029.36 1460  1026 1460  C 1022.64 1460  1020 1457.36  1020 1454  C 1020 1450.64  1022.64 1448  1026 1448  Z " fill-rule="nonzero" fill="#f0f0f0" stroke="none" />
  <path d="M 1026 1448.5  C 1029.08 1448.5  1031.5 1450.92  1031.5 1454  C 1031.5 1457.08  1029.08 1459.5  1026 1459.5  C 1022.92 1459.5  1020.5 1457.08  1020.5 1454  C 1020.5 1450.92  1022.92 1448.5  1026 1448.5  Z " stroke-width="1" stroke="#797979" fill="none" />
  <path d="M 1026 1457  C 1024.32 1457  1023 1455.68  1023 1454  C 1023 1452.32  1024.32 1451  1026 1451  C 1027.68 1451  1029 1452.32  1029 1454  C 1029 1455.68  1027.68 1457  1026 1457  " fill-rule="nonzero" fill="#797979" stroke="none" />
</svg>