<?xml version="1.0" encoding="utf-8"?>
<svg version="1.1" xmlns:xlink="http://www.w3.org/1999/xlink" width="12px" height="12px" viewBox="1518 380  12 12" xmlns="http://www.w3.org/2000/svg">
  <path d="M 1524 380  C 1527.36 380  1530 382.64  1530 386  C 1530 389.36  1527.36 392  1524 392  C 1520.64 392  1518 389.36  1518 386  C 1518 382.64  1520.64 380  1524 380  Z " fill-rule="nonzero" fill="#f0f0f0" stroke="none" />
  <path d="M 1524 380.5  C 1527.08 380.5  1529.5 382.92  1529.5 386  C 1529.5 389.08  1527.08 391.5  1524 391.5  C 1520.92 391.5  1518.5 389.08  1518.5 386  C 1518.5 382.92  1520.92 380.5  1524 380.5  Z " stroke-width="1" stroke="#797979" fill="none" />
  <path d="M 1524 389  C 1522.32 389  1521 387.68  1521 386  C 1521 384.32  1522.32 383  1524 383  C 1525.68 383  1527 384.32  1527 386  C 1527 387.68  1525.68 389  1524 389  " fill-rule="nonzero" fill="#797979" stroke="none" />
</svg>