<?xml version="1.0" encoding="utf-8"?>
<svg version="1.1" xmlns:xlink="http://www.w3.org/1999/xlink" width="12px" height="12px" viewBox="1518 280  12 12" xmlns="http://www.w3.org/2000/svg">
  <path d="M 1524 280  C 1527.36 280  1530 282.64  1530 286  C 1530 289.36  1527.36 292  1524 292  C 1520.64 292  1518 289.36  1518 286  C 1518 282.64  1520.64 280  1524 280  Z " fill-rule="nonzero" fill="#f0f0f0" stroke="none" />
  <path d="M 1524 280.5  C 1527.08 280.5  1529.5 282.92  1529.5 286  C 1529.5 289.08  1527.08 291.5  1524 291.5  C 1520.92 291.5  1518.5 289.08  1518.5 286  C 1518.5 282.92  1520.92 280.5  1524 280.5  Z " stroke-width="1" stroke="#797979" fill="none" />
  <path d="M 1524 289  C 1522.32 289  1521 287.68  1521 286  C 1521 284.32  1522.32 283  1524 283  C 1525.68 283  1527 284.32  1527 286  C 1527 287.68  1525.68 289  1524 289  " fill-rule="nonzero" fill="#797979" stroke="none" />
</svg>