<?xml version="1.0" encoding="utf-8"?>
<svg version="1.1" xmlns:xlink="http://www.w3.org/1999/xlink" width="12px" height="12px" viewBox="1518 340  12 12" xmlns="http://www.w3.org/2000/svg">
  <path d="M 1524 340  C 1527.36 340  1530 342.64  1530 346  C 1530 349.36  1527.36 352  1524 352  C 1520.64 352  1518 349.36  1518 346  C 1518 342.64  1520.64 340  1524 340  Z " fill-rule="nonzero" fill="#f0f0f0" stroke="none" />
  <path d="M 1524 340.5  C 1527.08 340.5  1529.5 342.92  1529.5 346  C 1529.5 349.08  1527.08 351.5  1524 351.5  C 1520.92 351.5  1518.5 349.08  1518.5 346  C 1518.5 342.92  1520.92 340.5  1524 340.5  Z " stroke-width="1" stroke="#797979" fill="none" />
  <path d="M 1524 349  C 1522.32 349  1521 347.68  1521 346  C 1521 344.32  1522.32 343  1524 343  C 1525.68 343  1527 344.32  1527 346  C 1527 347.68  1525.68 349  1524 349  " fill-rule="nonzero" fill="#797979" stroke="none" />
</svg>