<?xml version="1.0" encoding="utf-8"?>
<svg version="1.1" xmlns:xlink="http://www.w3.org/1999/xlink" width="12px" height="12px" viewBox="1518 320  12 12" xmlns="http://www.w3.org/2000/svg">
  <path d="M 1524 320  C 1527.36 320  1530 322.64  1530 326  C 1530 329.36  1527.36 332  1524 332  C 1520.64 332  1518 329.36  1518 326  C 1518 322.64  1520.64 320  1524 320  Z " fill-rule="nonzero" fill="#ffffff" stroke="none" />
  <path d="M 1524 320.5  C 1527.08 320.5  1529.5 322.92  1529.5 326  C 1529.5 329.08  1527.08 331.5  1524 331.5  C 1520.92 331.5  1518.5 329.08  1518.5 326  C 1518.5 322.92  1520.92 320.5  1524 320.5  Z " stroke-width="1" stroke="#797979" fill="none" />
  <path d="M 1524 329  C 1522.32 329  1521 327.68  1521 326  C 1521 324.32  1522.32 323  1524 323  C 1525.68 323  1527 324.32  1527 326  C 1527 327.68  1525.68 329  1524 329  " fill-rule="nonzero" fill="#797979" stroke="none" />
</svg>