<?xml version="1.0" encoding="utf-8"?>
<svg version="1.1" xmlns:xlink="http://www.w3.org/1999/xlink" width="12px" height="12px" viewBox="1518 360  12 12" xmlns="http://www.w3.org/2000/svg">
  <path d="M 1524 360  C 1527.36 360  1530 362.64  1530 366  C 1530 369.36  1527.36 372  1524 372  C 1520.64 372  1518 369.36  1518 366  C 1518 362.64  1520.64 360  1524 360  Z " fill-rule="nonzero" fill="#ffffff" stroke="none" />
  <path d="M 1524 360.5  C 1527.08 360.5  1529.5 362.92  1529.5 366  C 1529.5 369.08  1527.08 371.5  1524 371.5  C 1520.92 371.5  1518.5 369.08  1518.5 366  C 1518.5 362.92  1520.92 360.5  1524 360.5  Z " stroke-width="1" stroke="#797979" fill="none" />
  <path d="M 1524 369  C 1522.32 369  1521 367.68  1521 366  C 1521 364.32  1522.32 363  1524 363  C 1525.68 363  1527 364.32  1527 366  C 1527 367.68  1525.68 369  1524 369  " fill-rule="nonzero" fill="#797979" stroke="none" />
</svg>