<?xml version="1.0" encoding="utf-8"?>
<svg version="1.1" xmlns:xlink="http://www.w3.org/1999/xlink" width="12px" height="12px" viewBox="538 262  12 12" xmlns="http://www.w3.org/2000/svg">
  <path d="M 544 262  C 547.36 262  550 264.64  550 268  C 550 271.36  547.36 274  544 274  C 540.64 274  538 271.36  538 268  C 538 264.64  540.64 262  544 262  Z " fill-rule="nonzero" fill="#f0f0f0" stroke="none" />
  <path d="M 544 262.5  C 547.08 262.5  549.5 264.92  549.5 268  C 549.5 271.08  547.08 273.5  544 273.5  C 540.92 273.5  538.5 271.08  538.5 268  C 538.5 264.92  540.92 262.5  544 262.5  Z " stroke-width="1" stroke="#797979" fill="none" />
  <path d="M 544 271  C 542.32 271  541 269.68  541 268  C 541 266.32  542.32 265  544 265  C 545.68 265  547 266.32  547 268  C 547 269.68  545.68 271  544 271  " fill-rule="nonzero" fill="#797979" stroke="none" />
</svg>