<?xml version="1.0" encoding="utf-8"?>
<svg version="1.1" xmlns:xlink="http://www.w3.org/1999/xlink" width="12px" height="12px" viewBox="446 262  12 12" xmlns="http://www.w3.org/2000/svg">
  <path d="M 452 262  C 455.36 262  458 264.64  458 268  C 458 271.36  455.36 274  452 274  C 448.64 274  446 271.36  446 268  C 446 264.64  448.64 262  452 262  Z " fill-rule="nonzero" fill="#ffffff" stroke="none" />
  <path d="M 452 262.5  C 455.08 262.5  457.5 264.92  457.5 268  C 457.5 271.08  455.08 273.5  452 273.5  C 448.92 273.5  446.5 271.08  446.5 268  C 446.5 264.92  448.92 262.5  452 262.5  Z " stroke-width="1" stroke="#797979" fill="none" />
  <path d="M 452 271  C 450.32 271  449 269.68  449 268  C 449 266.32  450.32 265  452 265  C 453.68 265  455 266.32  455 268  C 455 269.68  453.68 271  452 271  " fill-rule="nonzero" fill="#797979" stroke="none" />
</svg>