<?xml version="1.0" encoding="utf-8"?>
<svg version="1.1" xmlns:xlink="http://www.w3.org/1999/xlink" width="12px" height="12px" viewBox="778 2510  12 12" xmlns="http://www.w3.org/2000/svg">
  <path d="M 784 2510  C 787.36 2510  790 2512.64  790 2516  C 790 2519.36  787.36 2522  784 2522  C 780.64 2522  778 2519.36  778 2516  C 778 2512.64  780.64 2510  784 2510  Z " fill-rule="nonzero" fill="#ffffff" stroke="none" />
  <path d="M 784 2510.5  C 787.08 2510.5  789.5 2512.92  789.5 2516  C 789.5 2519.08  787.08 2521.5  784 2521.5  C 780.92 2521.5  778.5 2519.08  778.5 2516  C 778.5 2512.92  780.92 2510.5  784 2510.5  Z " stroke-width="1" stroke="#797979" fill="none" />
  <path d="M 784 2519  C 782.32 2519  781 2517.68  781 2516  C 781 2514.32  782.32 2513  784 2513  C 785.68 2513  787 2514.32  787 2516  C 787 2517.68  785.68 2519  784 2519  " fill-rule="nonzero" fill="#797979" stroke="none" />
</svg>