<?xml version="1.0" encoding="utf-8"?>
<svg version="1.1" xmlns:xlink="http://www.w3.org/1999/xlink" width="12px" height="12px" viewBox="778 2481  12 12" xmlns="http://www.w3.org/2000/svg">
  <path d="M 784 2481  C 787.36 2481  790 2483.64  790 2487  C 790 2490.36  787.36 2493  784 2493  C 780.64 2493  778 2490.36  778 2487  C 778 2483.64  780.64 2481  784 2481  Z " fill-rule="nonzero" fill="#f0f0f0" stroke="none" />
  <path d="M 784 2481.5  C 787.08 2481.5  789.5 2483.92  789.5 2487  C 789.5 2490.08  787.08 2492.5  784 2492.5  C 780.92 2492.5  778.5 2490.08  778.5 2487  C 778.5 2483.92  780.92 2481.5  784 2481.5  Z " stroke-width="1" stroke="#797979" fill="none" />
  <path d="M 784 2490  C 782.32 2490  781 2488.68  781 2487  C 781 2485.32  782.32 2484  784 2484  C 785.68 2484  787 2485.32  787 2487  C 787 2488.68  785.68 2490  784 2490  " fill-rule="nonzero" fill="#797979" stroke="none" />
</svg>