<?xml version="1.0" encoding="utf-8"?>
<svg version="1.1" xmlns:xlink="http://www.w3.org/1999/xlink" width="104px" height="104px" xmlns="http://www.w3.org/2000/svg">
  <g transform="matrix(1 0 0 1 -778 -2638 )">
    <path d="M 779 2642  A 3 3 0 0 1 782 2639 L 878 2639  A 3 3 0 0 1 881 2642 L 881 2738  A 3 3 0 0 1 878 2741 L 782 2741  A 3 3 0 0 1 779 2738 L 779 2642  Z " fill-rule="nonzero" fill="#000000" stroke="none" fill-opacity="0.0196078431372549" />
    <path d="M 778.5 2642  A 3.5 3.5 0 0 1 782 2638.5 L 878 2638.5  A 3.5 3.5 0 0 1 881.5 2642 L 881.5 2738  A 3.5 3.5 0 0 1 878 2741.5 L 782 2741.5  A 3.5 3.5 0 0 1 778.5 2738 L 778.5 2642  Z " stroke-width="1" stroke-dasharray="9,4" stroke="#000000" fill="none" stroke-opacity="0.149019607843137" stroke-dashoffset="0.5" />
  </g>
</svg>