<?xml version="1.0" encoding="utf-8"?>
<svg version="1.1" xmlns:xlink="http://www.w3.org/1999/xlink" width="12px" height="12px" viewBox="639 1763  12 12" xmlns="http://www.w3.org/2000/svg">
  <path d="M 645 1763  C 648.36 1763  651 1765.64  651 1769  C 651 1772.36  648.36 1775  645 1775  C 641.64 1775  639 1772.36  639 1769  C 639 1765.64  641.64 1763  645 1763  Z " fill-rule="nonzero" fill="#ffffff" stroke="none" />
  <path d="M 645 1763.5  C 648.08 1763.5  650.5 1765.92  650.5 1769  C 650.5 1772.08  648.08 1774.5  645 1774.5  C 641.92 1774.5  639.5 1772.08  639.5 1769  C 639.5 1765.92  641.92 1763.5  645 1763.5  Z " stroke-width="1" stroke="#797979" fill="none" />
  <path d="M 645 1772  C 643.32 1772  642 1770.68  642 1769  C 642 1767.32  643.32 1766  645 1766  C 646.68 1766  648 1767.32  648 1769  C 648 1770.68  646.68 1772  645 1772  " fill-rule="nonzero" fill="#797979" stroke="none" />
</svg>