<?xml version="1.0" encoding="utf-8"?>
<svg version="1.1" xmlns:xlink="http://www.w3.org/1999/xlink" width="12px" height="12px" viewBox="731 1763  12 12" xmlns="http://www.w3.org/2000/svg">
  <path d="M 737 1763  C 740.36 1763  743 1765.64  743 1769  C 743 1772.36  740.36 1775  737 1775  C 733.64 1775  731 1772.36  731 1769  C 731 1765.64  733.64 1763  737 1763  Z " fill-rule="nonzero" fill="#ffffff" stroke="none" />
  <path d="M 737 1763.5  C 740.08 1763.5  742.5 1765.92  742.5 1769  C 742.5 1772.08  740.08 1774.5  737 1774.5  C 733.92 1774.5  731.5 1772.08  731.5 1769  C 731.5 1765.92  733.92 1763.5  737 1763.5  Z " stroke-width="1" stroke="#797979" fill="none" />
  <path d="M 737 1772  C 735.32 1772  734 1770.68  734 1769  C 734 1767.32  735.32 1766  737 1766  C 738.68 1766  740 1767.32  740 1769  C 740 1770.68  738.68 1772  737 1772  " fill-rule="nonzero" fill="#797979" stroke="none" />
</svg>