<?xml version="1.0" encoding="utf-8"?>
<svg version="1.1" xmlns:xlink="http://www.w3.org/1999/xlink" width="12px" height="12px" viewBox="712 2313  12 12" xmlns="http://www.w3.org/2000/svg">
  <path d="M 718 2313  C 721.36 2313  724 2315.64  724 2319  C 724 2322.36  721.36 2325  718 2325  C 714.64 2325  712 2322.36  712 2319  C 712 2315.64  714.64 2313  718 2313  Z " fill-rule="nonzero" fill="#ffffff" stroke="none" />
  <path d="M 718 2313.5  C 721.08 2313.5  723.5 2315.92  723.5 2319  C 723.5 2322.08  721.08 2324.5  718 2324.5  C 714.92 2324.5  712.5 2322.08  712.5 2319  C 712.5 2315.92  714.92 2313.5  718 2313.5  Z " stroke-width="1" stroke="#797979" fill="none" />
  <path d="M 718 2322  C 716.32 2322  715 2320.68  715 2319  C 715 2317.32  716.32 2316  718 2316  C 719.68 2316  721 2317.32  721 2319  C 721 2320.68  719.68 2322  718 2322  " fill-rule="nonzero" fill="#797979" stroke="none" />
</svg>