<?xml version="1.0" encoding="utf-8"?>
<svg version="1.1" xmlns:xlink="http://www.w3.org/1999/xlink" width="40px" height="40px" xmlns="http://www.w3.org/2000/svg">
  <g transform="matrix(1 0 0 1 -145 -4832 )">
    <path d="M 0 20  C 0 13.6373780275935  2.84000345664077 8.04930245245214  7.34664229232925 4.40914135217008  C 10.7729523539047 1.64159750000181  15.1626219724067 0  20 0  C 20.3120728976199 0  20.6222824758503 0.00683217109508405  20.9304902843385 0.0203580629331555  C 22.1099164060071 0.0721179136335195  23.2600289835258 0.221899367105834  24.3730695594817 0.46194396593728  C 33.4078557117638 2.41043682800864  40 10.3062896474266  40 20  C 40 31.1999999999998  31.2 40  20 40  C 18.2561839727949 40  16.5705483219303 39.7866719534177  14.9672492075807 39.3841720204273  C 11.4609493847714 38.5039336225545  8.34843675587288 36.7189514806696  5.88236835393914 34.2818826278262  C 2.23358589061809 30.6760077521776  0 25.6425837702636  0 20  Z " fill-rule="nonzero" fill="#f5222d" stroke="none" transform="matrix(1 0 0 1 145 4832 )" />
  </g>
</svg>