<?xml version="1.0" encoding="utf-8"?>
<svg version="1.1" xmlns:xlink="http://www.w3.org/1999/xlink" width="12px" height="12px" viewBox="1020 1174  12 12" xmlns="http://www.w3.org/2000/svg">
  <path d="M 1026 1174  C 1029.36 1174  1032 1176.64  1032 1180  C 1032 1183.36  1029.36 1186  1026 1186  C 1022.64 1186  1020 1183.36  1020 1180  C 1020 1176.64  1022.64 1174  1026 1174  Z " fill-rule="nonzero" fill="#f0f0f0" stroke="none" />
  <path d="M 1026 1174.5  C 1029.08 1174.5  1031.5 1176.92  1031.5 1180  C 1031.5 1183.08  1029.08 1185.5  1026 1185.5  C 1022.92 1185.5  1020.5 1183.08  1020.5 1180  C 1020.5 1176.92  1022.92 1174.5  1026 1174.5  Z " stroke-width="1" stroke="#797979" fill="none" />
  <path d="M 1026 1183  C 1024.32 1183  1023 1181.68  1023 1180  C 1023 1178.32  1024.32 1177  1026 1177  C 1027.68 1177  1029 1178.32  1029 1180  C 1029 1181.68  1027.68 1183  1026 1183  " fill-rule="nonzero" fill="#797979" stroke="none" />
</svg>