<?xml version="1.0" encoding="utf-8"?>
<svg version="1.1" xmlns:xlink="http://www.w3.org/1999/xlink" width="12px" height="12px" viewBox="1020 72  12 12" xmlns="http://www.w3.org/2000/svg">
  <path d="M 1026 72  C 1029.36 72  1032 74.64  1032 78  C 1032 81.36  1029.36 84  1026 84  C 1022.64 84  1020 81.36  1020 78  C 1020 74.64  1022.64 72  1026 72  Z " fill-rule="nonzero" fill="#f0f0f0" stroke="none" />
  <path d="M 1026 72.5  C 1029.08 72.5  1031.5 74.92  1031.5 78  C 1031.5 81.08  1029.08 83.5  1026 83.5  C 1022.92 83.5  1020.5 81.08  1020.5 78  C 1020.5 74.92  1022.92 72.5  1026 72.5  Z " stroke-width="1" stroke="#797979" fill="none" />
  <path d="M 1026 81  C 1024.32 81  1023 79.68  1023 78  C 1023 76.32  1024.32 75  1026 75  C 1027.68 75  1029 76.32  1029 78  C 1029 79.68  1027.68 81  1026 81  " fill-rule="nonzero" fill="#797979" stroke="none" />
</svg>