<?xml version="1.0" encoding="utf-8"?>
<svg version="1.1" xmlns:xlink="http://www.w3.org/1999/xlink" width="12px" height="12px" viewBox="237 427  12 12" xmlns="http://www.w3.org/2000/svg">
  <path d="M 243 427  C 246.36 427  249 429.64  249 433  C 249 436.36  246.36 439  243 439  C 239.64 439  237 436.36  237 433  C 237 429.64  239.64 427  243 427  Z " fill-rule="nonzero" fill="#f0f0f0" stroke="none" />
  <path d="M 243 427.5  C 246.08 427.5  248.5 429.92  248.5 433  C 248.5 436.08  246.08 438.5  243 438.5  C 239.92 438.5  237.5 436.08  237.5 433  C 237.5 429.92  239.92 427.5  243 427.5  Z " stroke-width="1" stroke="#797979" fill="none" />
  <path d="M 243 436  C 241.32 436  240 434.68  240 433  C 240 431.32  241.32 430  243 430  C 244.68 430  246 431.32  246 433  C 246 434.68  244.68 436  243 436  " fill-rule="nonzero" fill="#797979" stroke="none" />
</svg>