<?xml version="1.0" encoding="utf-8"?>
<svg version="1.1" xmlns:xlink="http://www.w3.org/1999/xlink" width="12px" height="12px" viewBox="796 1342  12 12" xmlns="http://www.w3.org/2000/svg">
  <path d="M 802 1342  C 805.36 1342  808 1344.64  808 1348  C 808 1351.36  805.36 1354  802 1354  C 798.64 1354  796 1351.36  796 1348  C 796 1344.64  798.64 1342  802 1342  Z " fill-rule="nonzero" fill="#ffffff" stroke="none" />
  <path d="M 802 1342.5  C 805.08 1342.5  807.5 1344.92  807.5 1348  C 807.5 1351.08  805.08 1353.5  802 1353.5  C 798.92 1353.5  796.5 1351.08  796.5 1348  C 796.5 1344.92  798.92 1342.5  802 1342.5  Z " stroke-width="1" stroke="#797979" fill="none" />
  <path d="M 802 1351  C 800.32 1351  799 1349.68  799 1348  C 799 1346.32  800.32 1345  802 1345  C 803.68 1345  805 1346.32  805 1348  C 805 1349.68  803.68 1351  802 1351  " fill-rule="nonzero" fill="#797979" stroke="none" />
</svg>