<?xml version="1.0" encoding="utf-8"?>
<svg version="1.1" xmlns:xlink="http://www.w3.org/1999/xlink" width="12px" height="12px" viewBox="796 1371  12 12" xmlns="http://www.w3.org/2000/svg">
  <path d="M 802 1371  C 805.36 1371  808 1373.64  808 1377  C 808 1380.36  805.36 1383  802 1383  C 798.64 1383  796 1380.36  796 1377  C 796 1373.64  798.64 1371  802 1371  Z " fill-rule="nonzero" fill="#f0f0f0" stroke="none" />
  <path d="M 802 1371.5  C 805.08 1371.5  807.5 1373.92  807.5 1377  C 807.5 1380.08  805.08 1382.5  802 1382.5  C 798.92 1382.5  796.5 1380.08  796.5 1377  C 796.5 1373.92  798.92 1371.5  802 1371.5  Z " stroke-width="1" stroke="#797979" fill="none" />
  <path d="M 802 1380  C 800.32 1380  799 1378.68  799 1377  C 799 1375.32  800.32 1374  802 1374  C 803.68 1374  805 1375.32  805 1377  C 805 1378.68  803.68 1380  802 1380  " fill-rule="nonzero" fill="#797979" stroke="none" />
</svg>